<mxfile host="app.diagrams.net" modified="2021-01-05T07:28:02.611Z" agent="5.0 (Macintosh; Intel Mac OS X 10_14_6) AppleWebKit/537.36 (KHTML, like Gecko) Chrome/87.0.4280.88 Safari/537.36" etag="LqkZORuFwX8mc_WIbbZd" version="14.1.1" type="github">
  <diagram id="r3AOOftxwBA8Yt_m3llu" name="第 1 页">
    <mxGraphModel dx="1722" dy="895" grid="1" gridSize="10" guides="1" tooltips="1" connect="1" arrows="1" fold="1" page="1" pageScale="1" pageWidth="1169" pageHeight="800" background="#F4F1DE" math="0" shadow="0">
      <root>
        <mxCell id="0" />
        <mxCell id="1" parent="0" />
      </root>
    </mxGraphModel>
  </diagram>
</mxfile>
